<svg width="337" height="52" viewBox="0 0 337 52" fill="none" xmlns="http://www.w3.org/2000/svg">
<g clip-path="url(#clip0_443_361)">
<path d="M102.072 18.4152H115.07V12.8278H96.0359V39.0745H102.072V29.2594H112.813V24.0957H104.184L102.058 26.5448L102.072 18.4152Z" fill="#161616"/>
<path d="M131.543 18.3779V29.1895C131.524 29.8606 131.393 30.5234 131.157 31.1498C130.949 31.7233 130.642 32.2533 130.249 32.7142C129.879 33.1512 129.424 33.5047 128.914 33.7526C128.401 34.0033 127.838 34.1307 127.27 34.1251C126.804 34.1471 126.34 34.0656 125.908 33.8864C125.476 33.7072 125.087 33.4344 124.767 33.0867C124.113 32.3151 123.776 31.3138 123.827 30.293V18.3779H118.086V31.5875C118.074 32.6707 118.255 33.747 118.622 34.763C118.951 35.6818 119.45 36.5263 120.094 37.2493C120.729 37.9508 121.503 38.5048 122.365 38.8744C123.288 39.2759 124.282 39.4773 125.285 39.4657C126.459 39.4593 127.617 39.1774 128.669 38.6415C129.783 38.086 130.768 37.2921 131.557 36.3135V39.0559H137.284V18.3779H131.543Z" fill="#161616"/>
<path d="M182.207 29.2268C182.207 29.0452 182.207 28.7612 182.207 28.4259C182.207 28.0907 182.162 27.5971 182.112 26.9965C182.022 25.7192 181.684 24.4733 181.117 23.3321C180.572 22.2474 179.825 21.2824 178.919 20.4918C177.976 19.6866 176.899 19.0634 175.74 18.6526C174.482 18.1989 173.157 17.9736 171.825 17.9868C170.385 17.9688 168.956 18.2409 167.619 18.7877C166.391 19.2915 165.274 20.0437 164.335 20.9993C163.403 21.9677 162.673 23.1212 162.191 24.389C161.672 25.77 161.413 27.2394 161.428 28.7193C161.412 30.201 161.677 31.6718 162.21 33.0495C162.697 34.3292 163.443 35.4887 164.399 36.4517C165.355 37.4147 166.499 38.1594 167.755 38.6369C169.127 39.17 170.584 39.4353 172.052 39.4191C174.277 39.495 176.47 38.8516 178.319 37.5799C180.064 36.2964 181.289 34.4011 181.762 32.2533H176.053C175.798 32.9564 175.302 33.5406 174.659 33.8969C173.768 34.3592 172.769 34.5546 171.775 34.4607C170.781 34.3668 169.833 33.9874 169.04 33.3661C168.161 32.5715 167.584 31.4825 167.414 30.293H182.166C182.193 29.9516 182.207 29.5962 182.207 29.2268ZM169.036 26.8009L167.219 28.6634C167.218 28.0327 167.306 27.4052 167.483 26.8009C167.567 26.4273 167.688 26.0637 167.846 25.716C168.128 25.0642 168.554 24.4887 169.09 24.0352C169.898 23.3618 170.915 23.0082 171.956 23.0388C173.052 22.9957 174.127 23.3483 174.995 24.0352C175.396 24.3762 175.727 24.797 175.965 25.2724C176.204 25.7477 176.347 26.2676 176.384 26.8009H169.036Z" fill="#161616"/>
<path d="M198.176 18.8482C197.044 18.2863 195.8 18.004 194.543 18.0241C193.22 18.0096 191.909 18.2693 190.687 18.7877C189.542 19.2769 188.517 20.0194 187.684 20.9621C186.829 21.9502 186.173 23.1023 185.754 24.3518C185.282 25.7564 185.05 27.2339 185.068 28.7193C185.052 30.1883 185.292 31.6485 185.777 33.0309C186.21 34.2748 186.878 35.4188 187.743 36.3973C188.583 37.3403 189.603 38.0949 190.741 38.6136C191.938 39.1556 193.234 39.4286 194.543 39.4145C195.843 39.4323 197.131 39.1457 198.308 38.5764C199.367 38.0826 200.264 37.2854 200.892 36.2809V39.0746H206.651V19.4815H200.91V21.2182C200.198 20.2146 199.26 19.4017 198.176 18.8482ZM200.542 30.8332C200.313 31.4427 199.963 31.9974 199.516 32.4628C199.064 32.9212 198.531 33.2863 197.944 33.5384C197.309 33.8066 196.628 33.9397 195.941 33.9295C195.26 33.9362 194.583 33.8032 193.952 33.5384C193.364 33.2919 192.831 32.9261 192.385 32.4628C191.941 31.987 191.591 31.4272 191.354 30.8146C191.097 30.1608 190.967 29.4615 190.973 28.7565C190.964 28.0409 191.088 27.3301 191.336 26.6612C191.563 26.0452 191.915 25.4852 192.367 25.0176C192.82 24.5545 193.359 24.1888 193.952 23.9421C194.583 23.6758 195.259 23.5412 195.941 23.5463C196.605 23.5189 197.267 23.6339 197.885 23.8841C198.503 24.1343 199.063 24.514 199.529 24.999C199.991 25.4992 200.35 26.0898 200.584 26.7354C200.818 27.381 200.923 28.0685 200.892 28.7565C200.907 29.4653 200.788 30.1705 200.542 30.8332Z" fill="#161616"/>
<path d="M158.64 32.9145C158.672 33.8256 158.489 34.7312 158.107 35.5541C157.724 36.3771 157.153 37.0929 156.442 37.6405C154.973 38.8045 152.763 39.385 149.811 39.3819H149.538C148.873 39.3784 148.209 39.3349 147.549 39.2515C145.605 39.0187 144.079 38.46 143.007 37.566C142.277 36.9804 141.694 36.2254 141.304 35.3632C140.915 34.5011 140.731 33.5565 140.768 32.6072V29.3479C141.321 30.0367 141.99 30.6186 142.744 31.066C143.685 31.6314 144.71 32.037 145.777 32.2673L146.468 32.4163V32.6025C146.475 32.9891 146.58 33.3671 146.772 33.6994C146.965 34.0317 147.239 34.3068 147.567 34.4976C148.183 34.8177 148.866 34.9776 149.556 34.9632H149.829C150.613 35.0184 151.397 34.8576 152.1 34.4976C152.344 34.3618 152.546 34.1595 152.685 33.9129C152.824 33.6664 152.893 33.3852 152.885 33.1007C152.899 32.7487 152.782 32.4044 152.558 32.1369C152.311 31.8698 152.012 31.6575 151.682 31.513C151.265 31.3271 150.829 31.1897 150.383 31.1033C149.883 30.9962 149.356 30.8891 148.793 30.7866C147.953 30.633 147.085 30.4514 146.195 30.2605C145.335 30.0766 144.51 29.7511 143.752 29.2967C142.929 28.832 142.253 28.1347 141.806 27.2878C141.358 26.4409 141.157 25.48 141.227 24.5194C141.227 22.4273 141.959 20.8147 143.425 19.6817C144.878 18.5549 146.917 17.9869 149.556 17.9775H149.638C150.092 17.9775 150.546 17.9775 150.978 18.0241C151.169 18.0241 151.364 18.0567 151.546 18.0846C153.146 18.2017 154.679 18.7903 155.96 19.7795C156.676 20.3808 157.248 21.1408 157.636 22.0023C158.023 22.8637 158.214 23.804 158.195 24.7522V27.2852C157.694 26.8544 157.141 26.4914 156.551 26.205C155.508 25.7019 154.406 25.3418 153.271 25.1341L152.413 24.9711V24.6032C152.403 24.3017 152.331 24.0056 152.202 23.7345C152.073 23.4633 151.889 23.223 151.664 23.0295C151.627 22.9959 151.588 22.9663 151.546 22.941C151.373 22.8116 151.181 22.711 150.978 22.643C150.522 22.4857 150.042 22.4117 149.561 22.4242C148.868 22.3857 148.18 22.5556 147.581 22.9131C147.348 23.0573 147.157 23.263 147.028 23.5088C146.9 23.7546 146.838 24.0312 146.849 24.3099C146.831 24.6373 146.914 24.9623 147.085 25.2395C147.256 25.5166 147.507 25.7321 147.803 25.8558C148.564 26.1981 149.359 26.4557 150.174 26.624C151.014 26.8056 151.936 26.9872 152.926 27.1735C153.885 27.3449 154.816 27.6471 155.697 28.0721C156.534 28.4749 157.264 29.0805 157.822 29.8368C158.415 30.744 158.702 31.8247 158.64 32.9145Z" fill="#161616"/>
<path d="M235.691 20.9994C235.073 19.4173 234.146 17.9816 232.966 16.7809C231.77 15.5701 230.347 14.6198 228.783 13.9872C227.084 13.3183 225.276 12.9865 223.455 13.0094H212.787V39.773H223.455C225.283 39.7921 227.097 39.4539 228.801 38.7766C230.361 38.1523 231.784 37.217 232.989 36.0248C234.172 34.8378 235.1 33.4105 235.714 31.8343C237.016 28.354 237.016 24.5029 235.714 21.0227L235.691 20.9994ZM223.428 35.2752H216.116L217.774 32.7748V17.5119H223.455C224.573 17.5017 225.68 17.7235 226.712 18.1638C227.692 18.5851 228.571 19.2207 229.287 20.0263C230.007 20.8385 230.564 21.7877 230.927 22.8199C231.319 23.9559 231.514 25.1536 231.504 26.3586C231.516 27.5775 231.321 28.7893 230.927 29.9392C230.56 30.98 230.006 31.9404 229.292 32.7702C228.578 33.5781 227.698 34.2141 226.716 34.6326C225.683 35.0711 224.574 35.2897 223.455 35.2752H223.428Z" fill="#161616"/>
<path d="M310.235 19.0158V23.7651L308.873 21.7164C308.222 20.7884 307.366 20.0319 306.375 19.5094C305.181 18.8963 303.858 18.594 302.523 18.6294C301.254 18.614 299.993 18.8529 298.813 19.3325C297.731 19.7803 296.759 20.4671 295.965 21.3439C295.148 22.2739 294.53 23.3681 294.148 24.5567C293.691 25.9515 293.469 27.4157 293.49 28.8869C293.473 30.3228 293.702 31.7506 294.166 33.1054C294.577 34.2955 295.212 35.3916 296.033 36.3321C296.83 37.2225 297.802 37.9288 298.885 38.4041C300.043 38.9052 301.289 39.1587 302.546 39.1491C303.837 39.1654 305.115 38.8871 306.288 38.3342C307.336 37.8404 308.236 37.0689 308.895 36.0993L310.258 34.0459V38.609C310.258 40.7881 309.804 42.441 308.85 43.5119C307.896 44.5828 306.438 45.1648 304.517 45.1648C303.426 45.189 302.347 44.9312 301.379 44.4152C300.681 44.0548 300.113 43.4758 299.757 42.7623L299.639 42.5108H294.893L295.016 43.0556C295.131 43.5762 295.299 44.0832 295.515 44.5688C295.91 45.4175 296.491 46.1604 297.214 46.7386C298.089 47.4143 299.082 47.9122 300.139 48.2053C301.532 48.5912 302.97 48.7731 304.413 48.7454C307.887 48.7454 310.54 47.9306 312.302 46.3242C314.064 44.7179 314.918 42.3292 314.918 39.1631V19.0158H310.235ZM304.249 35.2425C303.44 35.2447 302.638 35.0866 301.887 34.7769C301.178 34.4892 300.533 34.0586 299.989 33.5105C299.457 32.9605 299.039 32.3065 298.758 31.5875C298.453 30.8237 298.299 30.0055 298.304 29.1802C298.278 28.3665 298.411 27.5557 298.695 26.7954C298.979 26.035 299.408 25.3404 299.957 24.7522C300.514 24.1717 301.183 23.7163 301.921 23.4149C302.66 23.1136 303.451 22.9728 304.245 23.0015C305.043 22.9693 305.84 23.106 306.584 23.4032C307.329 23.7004 308.006 24.1517 308.573 24.729C309.126 25.3189 309.559 26.017 309.843 26.7818C310.128 27.5465 310.26 28.3622 310.231 29.1802C310.256 29.9821 310.122 30.7809 309.836 31.5278C309.55 32.2748 309.119 32.9541 308.568 33.5244C308 34.0955 307.323 34.5419 306.581 34.8365C305.838 35.1311 305.045 35.2677 304.249 35.2379V35.2425Z" fill="#161616"/>
<path d="M337 26.354V39.7777H332.317V27.7042C332.363 26.4141 331.926 25.1548 331.096 24.1842C330.685 23.7234 330.181 23.3599 329.62 23.1187C329.058 22.8775 328.452 22.7644 327.844 22.7873C327.119 22.7773 326.401 22.9366 325.745 23.2529C325.103 23.5625 324.53 24.0066 324.065 24.5567C323.583 25.1239 323.202 25.7731 322.939 26.475C322.66 27.232 322.506 28.0314 322.484 28.8403V39.759H317.806V19.0158H322.484V23.3135L323.811 21.7025C324.589 20.7364 325.56 19.9522 326.658 19.4023C327.694 18.8749 328.835 18.5992 329.992 18.5968C330.972 18.5816 331.944 18.7734 332.849 19.1602C333.675 19.5263 334.416 20.0674 335.024 20.7479C335.648 21.4701 336.135 22.3055 336.46 23.2111C336.826 24.216 337.009 25.2813 337 26.354Z" fill="#161616"/>
<path d="M287.858 16.562H290.274V39.745H285.678V11.0026H290.261V11.971C290.265 12.8809 290.047 13.7774 289.628 14.5792C289.208 15.3809 288.6 16.0625 287.858 16.562Z" fill="#161616"/>
<path d="M282.717 34.0692C282.751 34.9432 282.577 35.8127 282.211 36.6028C281.845 37.3928 281.297 38.0797 280.614 38.6043C279.156 39.7544 276.88 40.341 273.847 40.341H273.583C272.879 40.3363 272.175 40.2928 271.476 40.2107C269.5 39.9686 267.951 39.4098 266.879 38.5298C266.171 37.9651 265.606 37.2343 265.23 36.399C264.855 35.5636 264.681 34.648 264.722 33.7293V32.0531L265.39 32.5187C265.508 32.5978 265.626 32.6677 265.749 32.7422C266.823 33.3923 267.991 33.8638 269.209 34.139L269.473 34.1996L269.536 34.465C269.627 34.8928 269.806 35.2959 270.06 35.6475C270.315 35.9991 270.639 36.2912 271.012 36.5044C271.787 36.9249 272.652 37.1424 273.529 37.1376H273.847C274.843 37.1925 275.835 36.9689 276.717 36.4904C277.089 36.2715 277.397 35.9552 277.61 35.5739C277.823 35.1926 277.933 34.7601 277.93 34.3206C277.946 33.7489 277.751 33.1919 277.385 32.7608C277.045 32.3864 276.634 32.0883 276.176 31.8855C275.669 31.6604 275.139 31.4933 274.596 31.3872C274.051 31.2708 273.47 31.1544 272.852 31.0427C271.975 30.8751 271.035 30.6888 270.045 30.47C269.186 30.2864 268.361 29.9626 267.602 29.5108C266.904 29.0917 266.311 28.5114 265.871 27.816C265.396 26.9353 265.177 25.9335 265.24 24.9292C265.24 22.8898 265.926 21.3625 267.334 20.273C268.742 19.1835 270.872 18.5828 273.565 18.5735H273.647C274.101 18.5735 274.591 18.5735 275.055 18.6201L275.636 18.6806C277.512 18.9041 279.001 19.4721 280.069 20.3615C281.477 21.5302 282.181 23.1179 282.226 25.2039V26.4331L281.504 26.0699C280.31 25.4936 279.047 25.0818 277.748 24.8453L277.462 24.7941L277.362 24.4915C277.238 23.7854 276.874 23.147 276.335 22.6895C276.281 22.643 276.208 22.5918 276.136 22.5405C275.897 22.3694 275.635 22.2346 275.359 22.1401C274.774 21.9365 274.159 21.8403 273.542 21.8561C272.638 21.8133 271.741 22.0432 270.962 22.5173C270.61 22.747 270.321 23.0661 270.123 23.4437C269.926 23.8213 269.827 24.2448 269.836 24.6731C269.815 25.1775 269.945 25.6766 270.209 26.1029C270.473 26.5292 270.858 26.8622 271.312 27.057C272.188 27.4509 273.101 27.749 274.037 27.9463C274.918 28.1372 275.913 28.3374 277.062 28.547C278.043 28.7251 278.997 29.0384 279.896 29.4782C280.7 29.8644 281.401 30.4462 281.935 31.1731C282.495 32.026 282.769 33.0425 282.717 34.0692Z" fill="#161616"/>
<path d="M261.502 29.8228C261.502 29.7157 261.502 29.5853 261.502 29.4317V29.0126C261.479 28.6355 261.447 28.1093 261.393 27.4621C261.3 26.1545 260.954 24.8788 260.376 23.7093C259.824 22.5998 259.061 21.615 258.132 20.8131C257.167 19.9806 256.06 19.3396 254.866 18.9227C253.553 18.4501 252.17 18.2154 250.779 18.229C249.288 18.2142 247.808 18.4924 246.419 19.0484C245.158 19.5759 244.012 20.3527 243.044 21.3346C242.088 22.3256 241.341 23.5081 240.85 24.8081C240.31 26.2424 240.039 27.7684 240.051 29.3059C240.038 30.8408 240.315 32.3636 240.869 33.7898C241.371 35.0989 242.137 36.2846 243.117 37.2691C244.096 38.2536 245.268 39.0149 246.555 39.5029C247.986 40.0562 249.504 40.3325 251.033 40.3178C253.595 40.3178 255.779 39.6799 257.514 38.4274C258.856 37.4634 259.893 36.1185 260.498 34.5581L260.748 33.9482H255.952L255.82 34.1623C255.445 34.7941 254.914 35.313 254.281 35.6663C253.164 36.2533 251.907 36.5017 250.658 36.3821C249.409 36.2625 248.218 35.78 247.227 34.9911C246.123 34.0045 245.399 32.6452 245.188 31.1591L245.124 30.8658L245.052 30.2465H261.502V29.8228ZM245.002 28.4865C245.05 27.9853 245.142 27.4896 245.279 27.0058C245.386 26.5489 245.538 26.1044 245.733 25.6788C246.089 24.8515 246.628 24.1212 247.309 23.5463C248.334 22.691 249.621 22.2372 250.942 22.2658C252.326 22.2202 253.682 22.6714 254.776 23.5416C255.297 23.9791 255.727 24.5201 256.039 25.1323C256.351 25.7444 256.539 26.415 256.592 27.1036L256.688 27.9557H245.638L245.002 28.4865Z" fill="#161616"/>
<path d="M205.007 18.1544C203.88 19.1803 202.426 19.7498 200.919 19.7562V12.8557H206.651V14.2526C206.658 14.9757 206.519 15.6926 206.243 16.3579C205.966 17.0231 205.557 17.6222 205.043 18.1172L205.007 18.1544Z" fill="#161616"/>
<path d="M82.0836 11.9384V39.6333L70.0524 51.9721H55.6822V41.1233H67.9132C68.6452 41.1215 69.3549 40.8648 69.926 40.3953C70.497 39.9258 70.8955 39.2713 71.0561 38.5391C71.1107 38.3042 71.1381 38.0635 71.1379 37.8221V13.9825C71.1373 13.3749 70.9733 12.7792 70.664 12.2609C70.3547 11.7426 69.9121 11.3217 69.3848 11.0445H69.4347L69.3848 11.0212H50.9315V0.312012H70.7473L72.0281 1.62505L82.0836 11.9384Z" fill="#A1E44D"/>
<path d="M64.2616 20.557V31.3453H49.2238V41.7425C49.2238 41.9707 49.2238 42.1755 49.2238 42.3478V42.4503C49.2238 42.8088 49.2238 43.0183 49.2238 43.0183C49.0146 45.0298 48.5568 47.0059 47.8613 48.899C47.5204 49.7799 46.9315 50.5368 46.1696 51.0733C45.4077 51.6098 44.5072 51.9016 43.5829 51.9116L39.2137 51.9628L29.4761 41.207H38.7141C38.7141 40.9742 38.7368 40.7414 38.7368 40.504C38.7368 40.2665 38.7368 39.894 38.7368 39.5728L38.6959 37.6404V0.31665H49.2238V20.557H64.2616Z" fill="#A1E44D"/>
<path d="M36.911 51.986L35.8301 52H23.8262L14.0432 41.207L0 25.7113L18.3806 5.47564L23.3584 0H36.5114L28.1136 9.23782L13.8297 24.9617L13.1348 25.7299L27.1462 41.207L36.911 51.986Z" fill="#A1E44D"/>
</g>
<defs>
<clipPath id="clip0_443_361">
<rect width="337" height="52" fill="white"/>
</clipPath>
</defs>
</svg>
